HIERARCHY
ROOT Hips
{
	OFFSET 0.000000 0.000000 0.000000
	CHANNELS 6 Xposition Yposition Zposition Zrotation Yrotation Xrotation 
	JOINT LHipJoint
	{
		OFFSET 0.000000 0.000000 0.000000
		CHANNELS 3 Zrotation Yrotation Xrotation
		JOINT LeftUpLeg
		{
			OFFSET 1.363060 -1.794630 0.839290
			CHANNELS 3 Zrotation Yrotation Xrotation
			JOINT LeftLeg
			{
				OFFSET 2.448110 -6.726130 0.000000
				CHANNELS 3 Zrotation Yrotation Xrotation
				JOINT LeftFoot
				{
					OFFSET 2.562200 -7.039590 0.000000
					CHANNELS 3 Zrotation Yrotation Xrotation
					JOINT LeftToeBase
					{
						OFFSET 0.157640 -0.433110 2.322550
						CHANNELS 3 Zrotation Yrotation Xrotation
						End Site
						{
							OFFSET 0.000000 0.000000 0.000000
						}
					}
				}
			}
		}
	}
	JOINT RHipJoint
	{
		OFFSET 0.000000 0.000000 0.000000
		CHANNELS 3 Zrotation Yrotation Xrotation
		JOINT RightUpLeg
		{
			OFFSET -1.305520 -1.794630 0.839290
			CHANNELS 3 Zrotation Yrotation Xrotation
			JOINT RightLeg
			{
				OFFSET -2.542530 -6.985550 0.000000
				CHANNELS 3 Zrotation Yrotation Xrotation
				JOINT RightFoot
				{
					OFFSET -2.568260 -7.056230 0.000000
					CHANNELS 3 Zrotation Yrotation Xrotation
					JOINT RightToeBase
					{
						OFFSET -0.164730 -0.452590 2.363150
						CHANNELS 3 Zrotation Yrotation Xrotation
						End Site
						{
							OFFSET 0.000000 0.000000 0.000000
						}
					}
				}
			}
		}
	}
	JOINT LowerBack
	{
		OFFSET 0.000000 0.000000 0.000000
		CHANNELS 3 Zrotation Yrotation Xrotation
		JOINT Spine
		{
			OFFSET 0.028270 2.035590 -0.193380
			CHANNELS 3 Zrotation Yrotation Xrotation
			JOINT Spine1
			{
				OFFSET 0.056720 2.048850 -0.042750
				CHANNELS 3 Zrotation Yrotation Xrotation
				JOINT Neck
				{
					OFFSET 0.000000 0.000000 0.000000
					CHANNELS 3 Zrotation Yrotation Xrotation
					JOINT Neck1
					{
						OFFSET -0.054170 1.746240 0.172020
						CHANNELS 3 Zrotation Yrotation Xrotation
						JOINT Head
						{
							OFFSET 0.104070 1.761360 -0.123970
							CHANNELS 3 Zrotation Yrotation Xrotation
							End Site
							{
								OFFSET 0.000000 0.000000 0.000000
							}
						}
					}
				}
				JOINT LeftShoulder
				{
					OFFSET 0.000000 0.000000 0.000000
					CHANNELS 3 Zrotation Yrotation Xrotation
					JOINT LeftArm
					{
						OFFSET 3.362410 1.200890 -0.311210
						CHANNELS 3 Zrotation Yrotation Xrotation
						JOINT LeftForeArm
						{
							OFFSET 4.983000 -0.000000 -0.000000
							CHANNELS 3 Zrotation Yrotation Xrotation
							JOINT LeftHand
							{
								OFFSET 3.483560 -0.000000 -0.000000
								CHANNELS 3 Zrotation Yrotation Xrotation
								JOINT LeftFingerBase
								{
									OFFSET 0.000000 0.000000 0.000000
									CHANNELS 3 Zrotation Yrotation Xrotation
									JOINT LeftHandIndex1
									{
										OFFSET 0.715260 -0.000000 -0.000000
										CHANNELS 3 Zrotation Yrotation Xrotation
										End Site
										{
											OFFSET 0.000000 0.000000 0.000000
										}
									}
								}
								JOINT LThumb
								{
									OFFSET 0.000000 0.000000 0.000000
									CHANNELS 3 Zrotation Yrotation Xrotation
									End Site
									{
										OFFSET 0.000000 0.000000 0.000000
									}
								}
							}
						}
					}
				}
				JOINT RightShoulder
				{
					OFFSET 0.000000 0.000000 0.000000
					CHANNELS 3 Zrotation Yrotation Xrotation
					JOINT RightArm
					{
						OFFSET -3.136600 1.374050 -0.404650
						CHANNELS 3 Zrotation Yrotation Xrotation
						JOINT RightForeArm
						{
							OFFSET -5.241900 -0.000000 -0.000000
							CHANNELS 3 Zrotation Yrotation Xrotation
							JOINT RightHand
							{
								OFFSET -3.444170 -0.000000 -0.000000
								CHANNELS 3 Zrotation Yrotation Xrotation
								JOINT RightFingerBase
								{
									OFFSET 0.000000 0.000000 0.000000
									CHANNELS 3 Zrotation Yrotation Xrotation
									JOINT RightHandIndex1
									{
										OFFSET -0.622530 -0.000000 -0.000000
										CHANNELS 3 Zrotation Yrotation Xrotation
										End Site
										{
											OFFSET 0.000000 0.000000 0.000000
										}
									}
								}
								JOINT RThumb
								{
									OFFSET 0.000000 0.000000 0.000000
									CHANNELS 3 Zrotation Yrotation Xrotation
									End Site
									{
										OFFSET 0.000000 0.000000 0.000000
									}
								}
							}
						}
					}
				}
			}
		}
	}
}
MOTION
Frames: 7
Frame Time: 0.008333
3.256790 17.361544 -0.976393 154.134131 -78.190578 -144.015074 -10.492079 2.189331 0.071694 -8.882164 12.983115 -20.363491 -1.394884 0.623822 23.020610 2.483602 17.916001 2.438941 3.335800 -0.000000 -46.182000 9.486409 -1.710445 3.224209 7.160478 4.664373 -13.030681 1.766400 0.131881 12.855650 -1.498218 -5.422867 -8.708288 -0.216900 0.000000 -51.052600 -2.666146 -2.900768 -4.726815 -0.871153 -2.873355 -3.133086 -5.036230 -2.968241 2.945370 3.626869 -13.905866 -9.056406 -3.221362 -0.241042 -0.394585 0.000000 0.000000 0.000000 -0.808675 15.267173 1.282006 -61.494631 9.814081 -29.781790 -3.667447 -16.237838 0.017000 15.920125 -6.548996 -0.919115 -0.097395 -0.018935 -0.000000 0.000000 0.000000 0.000000 0.000000 0.000000 0.000000 9.720181 -10.854911 -1.133147 53.221880 1.401441 -19.730596 0.787738 59.547041 -0.032813 -11.931218 12.748674 -1.391496 0.157694 -0.345261 0.000000 0.000000 0.000000 0.000000 0.000000 0.000000 0.000000 
3.271532 17.360676 -1.005718 153.304461 -77.895330 -143.928668 -10.431588 2.106962 -0.166115 -8.911997 13.112258 -21.023697 -1.289998 0.818518 25.308437 2.455671 17.819951 3.124330 3.484400 0.000000 -44.141600 9.631396 -1.660470 3.003202 6.864305 4.463095 -12.316812 1.712849 0.018081 13.381300 -1.481480 -5.315250 -8.888395 -0.178100 0.000000 -51.286201 -2.957121 -2.774093 -4.233789 -0.930916 -2.710613 -3.037091 -4.994479 -2.800973 2.926018 3.361016 -13.744677 -9.000108 -3.197308 -0.239037 -0.390267 0.000000 0.000000 0.000000 -1.133200 15.870063 1.251593 -61.392284 10.345438 -29.999169 -3.696379 -16.080727 0.018248 15.814229 -6.522401 -0.909008 -0.101658 -0.021990 -0.000000 0.000000 0.000000 0.000000 0.000000 0.000000 0.000000 9.386220 -10.582211 -1.184816 53.035180 1.087744 -19.728841 0.756712 59.751153 -0.035247 -12.292384 12.709968 -1.429998 0.160550 -0.349450 0.000000 0.000000 0.000000 0.000000 0.000000 0.000000 0.000000 
3.287765 17.359152 -1.034875 152.377998 -77.685579 -143.624387 -10.363674 2.002103 -0.361726 -8.958850 13.191052 -21.850185 -1.214132 0.972294 27.157684 2.399878 17.505099 3.780613 3.578700 -0.000000 -41.796500 9.776163 -1.613008 2.788488 6.588670 4.166281 -11.754791 1.672668 -0.082583 13.849082 -1.453570 -5.151390 -9.046031 -0.143100 0.000000 -51.516200 -3.256999 -2.646087 -3.791492 -0.994574 -2.548010 -2.951072 -4.966458 -2.633551 2.910217 3.134089 -13.593843 -8.950673 -3.174437 -0.237106 -0.387075 0.000000 0.000000 0.000000 -1.446965 16.434462 1.219767 -61.245395 10.837565 -30.158445 -3.719916 -16.135884 0.019641 15.759745 -6.541616 -0.908296 -0.105626 -0.025344 -0.000000 0.000000 0.000000 0.000000 0.000000 0.000000 0.000000 9.088091 -10.322932 -1.229239 52.909734 0.834128 -19.795463 0.729680 59.921306 -0.037605 -12.635724 12.664308 -1.465298 0.163345 -0.353388 0.000000 0.000000 0.000000 0.000000 0.000000 0.000000 0.000000 
3.304790 17.357416 -1.064330 151.310921 -77.579227 -143.036044 -10.282656 1.872955 -0.501386 -9.030917 13.174016 -22.868028 -1.171590 1.082293 28.522055 2.322215 17.002058 4.342404 3.605500 0.000000 -39.342400 9.920105 -1.568362 2.588549 6.335800 3.780229 -11.371665 1.644122 -0.167483 14.252785 -1.418991 -4.950815 -9.187848 -0.112100 0.000000 -51.718500 -3.567989 -2.520663 -3.424302 -1.062719 -2.390063 -2.878032 -4.952947 -2.470845 2.904780 2.952731 -13.464699 -8.910429 -3.154177 -0.235380 -0.385373 0.000000 0.000000 0.000000 -1.730537 16.969069 1.185436 -61.060284 11.254221 -30.308195 -3.738423 -16.350177 0.021076 15.754517 -6.598392 -0.915582 -0.109249 -0.028648 -0.000000 0.000000 0.000000 0.000000 0.000000 0.000000 0.000000 8.843045 -10.091618 -1.269310 52.835291 0.637367 -19.921920 0.706556 60.069828 -0.039823 -12.952119 12.607824 -1.495995 0.166008 -0.356935 0.000000 0.000000 0.000000 0.000000 0.000000 0.000000 0.000000 
3.322240 17.355901 -1.094269 150.058349 -77.587818 -142.108799 -10.182867 1.719001 -0.577211 -9.133311 13.019555 -24.074894 -1.164978 1.147409 29.359139 2.228811 16.355174 4.774450 3.567300 0.000000 -36.980800 10.063715 -1.525284 2.405304 6.107907 3.311967 -11.170137 1.625109 -0.235393 14.583880 -1.382015 -4.735170 -9.314454 -0.085600 0.000000 -51.880600 -3.891517 -2.401463 -3.140659 -1.135984 -2.240563 -2.819339 -4.955151 -2.316887 2.910579 2.821864 -13.356879 -8.877865 -3.138423 -0.234053 -0.384606 0.000000 0.000000 0.000000 -1.970212 17.464264 1.149645 -60.846138 11.585985 -30.484253 -3.751872 -16.694896 0.022488 15.794191 -6.684917 -0.929766 -0.112477 -0.031695 -0.000000 0.000000 0.000000 0.000000 0.000000 0.000000 0.000000 8.663666 -9.890001 -1.305460 52.802946 0.483240 -20.107836 0.687166 60.214063 -0.041847 -13.232668 12.537716 -1.520590 0.168446 -0.359984 0.000000 0.000000 0.000000 0.000000 0.000000 0.000000 0.000000 
3.339965 17.354985 -1.124803 148.566713 -77.717411 -140.785057 -10.058508 1.541034 -0.584038 -9.268040 12.687340 -25.454772 -1.194792 1.167506 29.633204 2.126434 15.621729 5.083151 3.484100 0.000000 -34.964600 10.208355 -1.481368 2.238590 5.906742 2.776723 -11.142895 1.612819 -0.286138 14.834897 -1.347713 -4.532139 -9.422497 -0.064400 0.000000 -51.999500 -4.227431 -2.291831 -2.941866 -1.214471 -2.102816 -2.775431 -4.973284 -2.175148 2.926473 2.744536 -13.275051 -8.851731 -3.127963 -0.233219 -0.384307 0.000000 0.000000 0.000000 -2.159773 17.900881 1.113856 -60.612803 11.842894 -30.700081 -3.760302 -17.166092 0.023819 15.870148 -6.785678 -0.948247 -0.115322 -0.034373 -0.000000 0.000000 0.000000 0.000000 0.000000 0.000000 0.000000 8.556251 -9.724428 -1.336621 52.805096 0.367997 -20.347491 0.671533 60.365185 -0.043625 -13.472221 12.453436 -1.538383 0.170617 -0.362478 0.000000 0.000000 0.000000 0.000000 0.000000 0.000000 0.000000 
3.357738 17.354726 -1.155586 146.804199 -77.973877 -139.026292 -9.906523 1.339738 -0.515867 -9.423376 12.140946 -27.004924 -1.260387 1.144012 29.342002 2.020761 14.848368 5.281042 3.375800 0.000000 -33.377300 10.351457 -1.434649 2.089468 5.747512 2.197604 -11.289557 1.605852 -0.319529 15.007995 -1.322358 -4.373502 -9.517380 -0.048099 0.000000 -52.054000 -4.565685 -2.193154 -2.831153 -1.296120 -1.978812 -2.746846 -5.005657 -2.047795 2.953436 2.720665 -13.215539 -8.832159 -3.122248 -0.232833 -0.384415 0.000000 0.000000 0.000000 -2.289755 18.279858 1.080085 -60.376636 12.008691 -30.976809 -3.762689 -17.742223 0.024971 15.977156 -6.889582 -0.969229 -0.117808 -0.036394 -0.000000 0.000000 0.000000 0.000000 0.000000 0.000000 0.000000 8.517980 -9.592621 -1.362992 52.832406 0.276971 -20.638425 0.658990 60.537449 -0.045155 -13.669316 12.356753 -1.549371 0.172483 -0.364447 0.000000 0.000000 0.000000 0.000000 0.000000 0.000000 0.000000 
